<mxfile host="app.diagrams.net" modified="2022-03-16T22:48:49.846Z" agent="5.0 (Windows NT 10.0; Win64; x64) AppleWebKit/537.36 (KHTML, like Gecko) Chrome/99.0.4844.51 Safari/537.36" etag="Z_CRnRB2TbVAiNjhbRuw" version="17.1.3" type="github">
  <diagram id="F3NtzQSYsOcFLy4r83rR" name="Page-1">
    <mxGraphModel dx="2249" dy="762" grid="1" gridSize="10" guides="1" tooltips="1" connect="1" arrows="1" fold="1" page="1" pageScale="1" pageWidth="827" pageHeight="1169" math="0" shadow="0">
      <root>
        <mxCell id="0" />
        <mxCell id="1" parent="0" />
        <mxCell id="hPIB-2XHrbSBjUEn3iMw-6" style="edgeStyle=orthogonalEdgeStyle;rounded=0;orthogonalLoop=1;jettySize=auto;html=1;" parent="1" source="hPIB-2XHrbSBjUEn3iMw-1" target="hPIB-2XHrbSBjUEn3iMw-5" edge="1">
          <mxGeometry relative="1" as="geometry" />
        </mxCell>
        <mxCell id="hPIB-2XHrbSBjUEn3iMw-2" value="router-office&lt;br&gt;10.10.101.1" style="sketch=0;points=[[0.5,0,0],[1,0.5,0],[0.5,1,0],[0,0.5,0],[0.145,0.145,0],[0.8555,0.145,0],[0.855,0.8555,0],[0.145,0.855,0]];verticalLabelPosition=bottom;html=1;verticalAlign=top;aspect=fixed;align=left;pointerEvents=1;shape=mxgraph.cisco19.rect;prIcon=router;fillColor=#FAFAFA;strokeColor=#005073;" parent="1" vertex="1">
          <mxGeometry x="395" y="120" width="50" height="50" as="geometry" />
        </mxCell>
        <mxCell id="hPIB-2XHrbSBjUEn3iMw-5" value="&lt;b&gt;WhireGuard&lt;/b&gt;&lt;br&gt;network: 172.16.100.0./24&lt;br&gt;gateway: 172.16.100.1" style="rounded=1;whiteSpace=wrap;html=1;align=left;verticalAlign=top;" parent="1" vertex="1">
          <mxGeometry x="160" y="440" width="160" height="80" as="geometry" />
        </mxCell>
        <mxCell id="hPIB-2XHrbSBjUEn3iMw-9" value="" style="group" parent="1" vertex="1" connectable="0">
          <mxGeometry x="360" y="240" width="160" height="160" as="geometry" />
        </mxCell>
        <mxCell id="hPIB-2XHrbSBjUEn3iMw-8" value="" style="rounded=1;whiteSpace=wrap;html=1;" parent="hPIB-2XHrbSBjUEn3iMw-9" vertex="1">
          <mxGeometry width="160" height="160" as="geometry" />
        </mxCell>
        <mxCell id="hPIB-2XHrbSBjUEn3iMw-1" value="router-server&lt;br&gt;10.10.100.1" style="sketch=0;points=[[0.5,0,0],[1,0.5,0],[0.5,1,0],[0,0.5,0],[0.145,0.145,0],[0.8555,0.145,0],[0.855,0.8555,0],[0.145,0.855,0]];verticalLabelPosition=bottom;html=1;verticalAlign=top;aspect=fixed;align=left;pointerEvents=1;shape=mxgraph.cisco19.rect;prIcon=router;fillColor=#FAFAFA;strokeColor=#005073;" parent="hPIB-2XHrbSBjUEn3iMw-9" vertex="1">
          <mxGeometry x="40" y="40" width="80" height="80" as="geometry" />
        </mxCell>
        <mxCell id="hPIB-2XHrbSBjUEn3iMw-10" value="&lt;b&gt;L2PT&lt;/b&gt;&lt;br&gt;network: 172.16.100.0./24&lt;br&gt;gateway: 172.16.100.1" style="rounded=1;whiteSpace=wrap;html=1;align=left;verticalAlign=top;" parent="1" vertex="1">
          <mxGeometry x="360" y="440" width="160" height="80" as="geometry" />
        </mxCell>
        <mxCell id="hPIB-2XHrbSBjUEn3iMw-11" value="&lt;b&gt;L2PT&lt;/b&gt;&lt;br&gt;network: 172.16.100.0./24&lt;br&gt;gateway: 172.16.100.1" style="rounded=1;whiteSpace=wrap;html=1;align=left;verticalAlign=top;" parent="1" vertex="1">
          <mxGeometry x="560" y="440" width="160" height="80" as="geometry" />
        </mxCell>
        <mxCell id="hPIB-2XHrbSBjUEn3iMw-14" style="edgeStyle=orthogonalEdgeStyle;rounded=0;orthogonalLoop=1;jettySize=auto;html=1;entryX=0.5;entryY=0;entryDx=0;entryDy=0;" parent="1" source="hPIB-2XHrbSBjUEn3iMw-8" target="hPIB-2XHrbSBjUEn3iMw-10" edge="1">
          <mxGeometry relative="1" as="geometry" />
        </mxCell>
        <mxCell id="hPIB-2XHrbSBjUEn3iMw-15" style="edgeStyle=orthogonalEdgeStyle;rounded=0;orthogonalLoop=1;jettySize=auto;html=1;" parent="1" source="hPIB-2XHrbSBjUEn3iMw-8" target="hPIB-2XHrbSBjUEn3iMw-11" edge="1">
          <mxGeometry relative="1" as="geometry" />
        </mxCell>
        <mxCell id="hP7yJV1moGMrhnIbroKg-1" value="Список внутренних сетей&lt;br&gt;&lt;ul&gt;&lt;li&gt;10.10.100.0/24 - сервкрная&lt;/li&gt;&lt;li&gt;10.10.101.0/24 -офис&lt;/li&gt;&lt;li&gt;10.10.102.0/24 - садовод&lt;/li&gt;&lt;li&gt;10.10.103.0/24 - ????&lt;/li&gt;&lt;li&gt;10.10.104.0/24 - Павелецкая&lt;/li&gt;&lt;li&gt;10.10.105.0/24 - Европейский&lt;/li&gt;&lt;li&gt;10.0.10.0/24 - Дубровка&lt;/li&gt;&lt;/ul&gt;" style="rounded=0;whiteSpace=wrap;html=1;align=left;verticalAlign=top;glass=0;sketch=0;" vertex="1" parent="1">
          <mxGeometry x="-200" y="80" width="240" height="400" as="geometry" />
        </mxCell>
        <mxCell id="hP7yJV1moGMrhnIbroKg-4" value="" style="shape=table;html=1;whiteSpace=wrap;startSize=0;container=1;collapsible=0;childLayout=tableLayout;rounded=0;glass=0;sketch=0;" vertex="1" parent="1">
          <mxGeometry x="140" y="90" width="180" height="120" as="geometry" />
        </mxCell>
        <mxCell id="hP7yJV1moGMrhnIbroKg-5" value="" style="shape=tableRow;horizontal=0;startSize=0;swimlaneHead=0;swimlaneBody=0;top=0;left=0;bottom=0;right=0;collapsible=0;dropTarget=0;fillColor=none;points=[[0,0.5],[1,0.5]];portConstraint=eastwest;rounded=0;glass=0;sketch=0;" vertex="1" parent="hP7yJV1moGMrhnIbroKg-4">
          <mxGeometry width="180" height="40" as="geometry" />
        </mxCell>
        <mxCell id="hP7yJV1moGMrhnIbroKg-6" value="" style="shape=partialRectangle;html=1;whiteSpace=wrap;connectable=0;fillColor=none;top=0;left=0;bottom=0;right=0;overflow=hidden;rounded=0;glass=0;sketch=0;" vertex="1" parent="hP7yJV1moGMrhnIbroKg-5">
          <mxGeometry width="60" height="40" as="geometry">
            <mxRectangle width="60" height="40" as="alternateBounds" />
          </mxGeometry>
        </mxCell>
        <mxCell id="hP7yJV1moGMrhnIbroKg-7" value="" style="shape=partialRectangle;html=1;whiteSpace=wrap;connectable=0;fillColor=none;top=0;left=0;bottom=0;right=0;overflow=hidden;rounded=0;glass=0;sketch=0;" vertex="1" parent="hP7yJV1moGMrhnIbroKg-5">
          <mxGeometry x="60" width="60" height="40" as="geometry">
            <mxRectangle width="60" height="40" as="alternateBounds" />
          </mxGeometry>
        </mxCell>
        <mxCell id="hP7yJV1moGMrhnIbroKg-8" value="" style="shape=partialRectangle;html=1;whiteSpace=wrap;connectable=0;fillColor=none;top=0;left=0;bottom=0;right=0;overflow=hidden;rounded=0;glass=0;sketch=0;" vertex="1" parent="hP7yJV1moGMrhnIbroKg-5">
          <mxGeometry x="120" width="60" height="40" as="geometry">
            <mxRectangle width="60" height="40" as="alternateBounds" />
          </mxGeometry>
        </mxCell>
        <mxCell id="hP7yJV1moGMrhnIbroKg-9" value="" style="shape=tableRow;horizontal=0;startSize=0;swimlaneHead=0;swimlaneBody=0;top=0;left=0;bottom=0;right=0;collapsible=0;dropTarget=0;fillColor=none;points=[[0,0.5],[1,0.5]];portConstraint=eastwest;rounded=0;glass=0;sketch=0;" vertex="1" parent="hP7yJV1moGMrhnIbroKg-4">
          <mxGeometry y="40" width="180" height="40" as="geometry" />
        </mxCell>
        <mxCell id="hP7yJV1moGMrhnIbroKg-10" value="" style="shape=partialRectangle;html=1;whiteSpace=wrap;connectable=0;fillColor=none;top=0;left=0;bottom=0;right=0;overflow=hidden;rounded=0;glass=0;sketch=0;" vertex="1" parent="hP7yJV1moGMrhnIbroKg-9">
          <mxGeometry width="60" height="40" as="geometry">
            <mxRectangle width="60" height="40" as="alternateBounds" />
          </mxGeometry>
        </mxCell>
        <mxCell id="hP7yJV1moGMrhnIbroKg-11" value="" style="shape=partialRectangle;html=1;whiteSpace=wrap;connectable=0;fillColor=none;top=0;left=0;bottom=0;right=0;overflow=hidden;rounded=0;glass=0;sketch=0;" vertex="1" parent="hP7yJV1moGMrhnIbroKg-9">
          <mxGeometry x="60" width="60" height="40" as="geometry">
            <mxRectangle width="60" height="40" as="alternateBounds" />
          </mxGeometry>
        </mxCell>
        <mxCell id="hP7yJV1moGMrhnIbroKg-12" value="" style="shape=partialRectangle;html=1;whiteSpace=wrap;connectable=0;fillColor=none;top=0;left=0;bottom=0;right=0;overflow=hidden;rounded=0;glass=0;sketch=0;" vertex="1" parent="hP7yJV1moGMrhnIbroKg-9">
          <mxGeometry x="120" width="60" height="40" as="geometry">
            <mxRectangle width="60" height="40" as="alternateBounds" />
          </mxGeometry>
        </mxCell>
        <mxCell id="hP7yJV1moGMrhnIbroKg-13" value="" style="shape=tableRow;horizontal=0;startSize=0;swimlaneHead=0;swimlaneBody=0;top=0;left=0;bottom=0;right=0;collapsible=0;dropTarget=0;fillColor=none;points=[[0,0.5],[1,0.5]];portConstraint=eastwest;rounded=0;glass=0;sketch=0;" vertex="1" parent="hP7yJV1moGMrhnIbroKg-4">
          <mxGeometry y="80" width="180" height="40" as="geometry" />
        </mxCell>
        <mxCell id="hP7yJV1moGMrhnIbroKg-14" value="" style="shape=partialRectangle;html=1;whiteSpace=wrap;connectable=0;fillColor=none;top=0;left=0;bottom=0;right=0;overflow=hidden;rounded=0;glass=0;sketch=0;" vertex="1" parent="hP7yJV1moGMrhnIbroKg-13">
          <mxGeometry width="60" height="40" as="geometry">
            <mxRectangle width="60" height="40" as="alternateBounds" />
          </mxGeometry>
        </mxCell>
        <mxCell id="hP7yJV1moGMrhnIbroKg-15" value="" style="shape=partialRectangle;html=1;whiteSpace=wrap;connectable=0;fillColor=none;top=0;left=0;bottom=0;right=0;overflow=hidden;rounded=0;glass=0;sketch=0;" vertex="1" parent="hP7yJV1moGMrhnIbroKg-13">
          <mxGeometry x="60" width="60" height="40" as="geometry">
            <mxRectangle width="60" height="40" as="alternateBounds" />
          </mxGeometry>
        </mxCell>
        <mxCell id="hP7yJV1moGMrhnIbroKg-16" value="" style="shape=partialRectangle;html=1;whiteSpace=wrap;connectable=0;fillColor=none;top=0;left=0;bottom=0;right=0;overflow=hidden;pointerEvents=1;rounded=0;glass=0;sketch=0;" vertex="1" parent="hP7yJV1moGMrhnIbroKg-13">
          <mxGeometry x="120" width="60" height="40" as="geometry">
            <mxRectangle width="60" height="40" as="alternateBounds" />
          </mxGeometry>
        </mxCell>
        <mxCell id="hP7yJV1moGMrhnIbroKg-19" value="&lt;table&gt;&lt;tbody&gt;&lt;tr&gt;&lt;td&gt;&lt;br&gt;&lt;/td&gt;&lt;td&gt;&lt;br&gt;&lt;/td&gt;&lt;/tr&gt;&lt;tr&gt;&lt;td&gt;&lt;br&gt;&lt;/td&gt;&lt;td&gt;&lt;br&gt;&lt;/td&gt;&lt;/tr&gt;&lt;/tbody&gt;&lt;/table&gt;" style="text;html=1;align=center;verticalAlign=middle;resizable=0;points=[];autosize=1;strokeColor=none;fillColor=none;" vertex="1" parent="1">
          <mxGeometry x="705" y="580" width="30" height="40" as="geometry" />
        </mxCell>
        <mxCell id="hP7yJV1moGMrhnIbroKg-21" value="&lt;table&gt;&lt;tbody&gt;&lt;tr&gt;&lt;td&gt;&lt;/td&gt;&lt;td&gt;&lt;br&gt;&lt;/td&gt;&lt;/tr&gt;&lt;tr&gt;&lt;td&gt;&lt;br&gt;&lt;/td&gt;&lt;td&gt;&lt;br&gt;&lt;/td&gt;&lt;/tr&gt;&lt;/tbody&gt;&lt;/table&gt;" style="whiteSpace=wrap;html=1;rounded=0;glass=0;sketch=0;" vertex="1" parent="1">
          <mxGeometry x="200" y="610" width="230" height="230" as="geometry" />
        </mxCell>
        <mxCell id="hP7yJV1moGMrhnIbroKg-22" value="Table" style="shape=table;startSize=30;container=1;collapsible=0;childLayout=tableLayout;fontStyle=1;align=center;rounded=0;glass=0;sketch=0;" vertex="1" parent="1">
          <mxGeometry x="320" y="220" width="180" height="150" as="geometry" />
        </mxCell>
        <mxCell id="hP7yJV1moGMrhnIbroKg-23" value="" style="shape=tableRow;horizontal=0;startSize=0;swimlaneHead=0;swimlaneBody=0;top=0;left=0;bottom=0;right=0;collapsible=0;dropTarget=0;fillColor=none;points=[[0,0.5],[1,0.5]];portConstraint=eastwest;rounded=0;glass=0;sketch=0;" vertex="1" parent="hP7yJV1moGMrhnIbroKg-22">
          <mxGeometry y="30" width="180" height="40" as="geometry" />
        </mxCell>
        <mxCell id="hP7yJV1moGMrhnIbroKg-24" value="" style="shape=partialRectangle;html=1;whiteSpace=wrap;connectable=0;fillColor=none;top=0;left=0;bottom=0;right=0;overflow=hidden;rounded=0;glass=0;sketch=0;" vertex="1" parent="hP7yJV1moGMrhnIbroKg-23">
          <mxGeometry width="60" height="40" as="geometry">
            <mxRectangle width="60" height="40" as="alternateBounds" />
          </mxGeometry>
        </mxCell>
        <mxCell id="hP7yJV1moGMrhnIbroKg-25" value="" style="shape=partialRectangle;html=1;whiteSpace=wrap;connectable=0;fillColor=none;top=0;left=0;bottom=0;right=0;overflow=hidden;rounded=0;glass=0;sketch=0;" vertex="1" parent="hP7yJV1moGMrhnIbroKg-23">
          <mxGeometry x="60" width="60" height="40" as="geometry">
            <mxRectangle width="60" height="40" as="alternateBounds" />
          </mxGeometry>
        </mxCell>
        <mxCell id="hP7yJV1moGMrhnIbroKg-26" value="" style="shape=partialRectangle;html=1;whiteSpace=wrap;connectable=0;fillColor=none;top=0;left=0;bottom=0;right=0;overflow=hidden;rounded=0;glass=0;sketch=0;" vertex="1" parent="hP7yJV1moGMrhnIbroKg-23">
          <mxGeometry x="120" width="60" height="40" as="geometry">
            <mxRectangle width="60" height="40" as="alternateBounds" />
          </mxGeometry>
        </mxCell>
        <mxCell id="hP7yJV1moGMrhnIbroKg-27" value="" style="shape=tableRow;horizontal=0;startSize=0;swimlaneHead=0;swimlaneBody=0;top=0;left=0;bottom=0;right=0;collapsible=0;dropTarget=0;fillColor=none;points=[[0,0.5],[1,0.5]];portConstraint=eastwest;rounded=0;glass=0;sketch=0;" vertex="1" parent="hP7yJV1moGMrhnIbroKg-22">
          <mxGeometry y="70" width="180" height="40" as="geometry" />
        </mxCell>
        <mxCell id="hP7yJV1moGMrhnIbroKg-28" value="" style="shape=partialRectangle;html=1;whiteSpace=wrap;connectable=0;fillColor=none;top=0;left=0;bottom=0;right=0;overflow=hidden;rounded=0;glass=0;sketch=0;" vertex="1" parent="hP7yJV1moGMrhnIbroKg-27">
          <mxGeometry width="60" height="40" as="geometry">
            <mxRectangle width="60" height="40" as="alternateBounds" />
          </mxGeometry>
        </mxCell>
        <mxCell id="hP7yJV1moGMrhnIbroKg-29" value="" style="shape=partialRectangle;html=1;whiteSpace=wrap;connectable=0;fillColor=none;top=0;left=0;bottom=0;right=0;overflow=hidden;rounded=0;glass=0;sketch=0;" vertex="1" parent="hP7yJV1moGMrhnIbroKg-27">
          <mxGeometry x="60" width="60" height="40" as="geometry">
            <mxRectangle width="60" height="40" as="alternateBounds" />
          </mxGeometry>
        </mxCell>
        <mxCell id="hP7yJV1moGMrhnIbroKg-30" value="" style="shape=partialRectangle;html=1;whiteSpace=wrap;connectable=0;fillColor=none;top=0;left=0;bottom=0;right=0;overflow=hidden;rounded=0;glass=0;sketch=0;" vertex="1" parent="hP7yJV1moGMrhnIbroKg-27">
          <mxGeometry x="120" width="60" height="40" as="geometry">
            <mxRectangle width="60" height="40" as="alternateBounds" />
          </mxGeometry>
        </mxCell>
        <mxCell id="hP7yJV1moGMrhnIbroKg-31" value="" style="shape=tableRow;horizontal=0;startSize=0;swimlaneHead=0;swimlaneBody=0;top=0;left=0;bottom=0;right=0;collapsible=0;dropTarget=0;fillColor=none;points=[[0,0.5],[1,0.5]];portConstraint=eastwest;rounded=0;glass=0;sketch=0;" vertex="1" parent="hP7yJV1moGMrhnIbroKg-22">
          <mxGeometry y="110" width="180" height="40" as="geometry" />
        </mxCell>
        <mxCell id="hP7yJV1moGMrhnIbroKg-32" value="" style="shape=partialRectangle;html=1;whiteSpace=wrap;connectable=0;fillColor=none;top=0;left=0;bottom=0;right=0;overflow=hidden;rounded=0;glass=0;sketch=0;" vertex="1" parent="hP7yJV1moGMrhnIbroKg-31">
          <mxGeometry width="60" height="40" as="geometry">
            <mxRectangle width="60" height="40" as="alternateBounds" />
          </mxGeometry>
        </mxCell>
        <mxCell id="hP7yJV1moGMrhnIbroKg-33" value="" style="shape=partialRectangle;html=1;whiteSpace=wrap;connectable=0;fillColor=none;top=0;left=0;bottom=0;right=0;overflow=hidden;rounded=0;glass=0;sketch=0;" vertex="1" parent="hP7yJV1moGMrhnIbroKg-31">
          <mxGeometry x="60" width="60" height="40" as="geometry">
            <mxRectangle width="60" height="40" as="alternateBounds" />
          </mxGeometry>
        </mxCell>
        <mxCell id="hP7yJV1moGMrhnIbroKg-34" value="" style="shape=partialRectangle;html=1;whiteSpace=wrap;connectable=0;fillColor=none;top=0;left=0;bottom=0;right=0;overflow=hidden;rounded=0;glass=0;sketch=0;" vertex="1" parent="hP7yJV1moGMrhnIbroKg-31">
          <mxGeometry x="120" width="60" height="40" as="geometry">
            <mxRectangle width="60" height="40" as="alternateBounds" />
          </mxGeometry>
        </mxCell>
      </root>
    </mxGraphModel>
  </diagram>
</mxfile>
